HIERARCHY
ROOT Hips
{
	OFFSET 0.000000 83.214638 0.000000
	CHANNELS 6 Xposition Yposition Zposition Xrotation Yrotation Zrotation
	JOINT Pelvis
	{
		OFFSET 0.000000 0.000000 0.000000
		CHANNELS 3 Xrotation Yrotation Zrotation
		JOINT LeftUpLeg
		{
			OFFSET 8.479700 -4.795502 -0.379100
			CHANNELS 3 Xrotation Yrotation Zrotation
			JOINT LeftLeg
			{
				OFFSET 0.024144 -32.555107 0.112900
				CHANNELS 3 Xrotation Yrotation Zrotation
				JOINT LeftFoot
				{
					OFFSET -0.024144 -32.638630 -3.012600
					CHANNELS 3 Xrotation Yrotation Zrotation
					JOINT LeftToeBase
					{
						OFFSET 0.970200 -13.225400 11.864200
						CHANNELS 3 Xrotation Yrotation Zrotation
						End Site
						{
							OFFSET 0.000000 12.319262 0.000000
						}
					}
					JOINT LFootTongue
					{
						OFFSET 1.142400 -1.059800 6.665200
						CHANNELS 3 Xrotation Yrotation Zrotation
						End Site
						{
							OFFSET 0.000000 12.319262 0.000000
						}
					}
				}
				JOINT LeftPantLeg
				{
					OFFSET 0.918482 -16.533964 -2.284700
					CHANNELS 3 Xrotation Yrotation Zrotation
					End Site
					{
						OFFSET 0.350399 24.744368 0.000000
					}
				}
			}
		}
		JOINT RightUpLeg
		{
			OFFSET -8.479700 -4.795502 -0.379100
			CHANNELS 3 Xrotation Yrotation Zrotation
			JOINT RightLeg
			{
				OFFSET -0.023144 -32.555092 0.112900
				CHANNELS 3 Xrotation Yrotation Zrotation
				JOINT RightFoot
				{
					OFFSET 0.023144 -32.638641 -3.012700
					CHANNELS 3 Xrotation Yrotation Zrotation
					JOINT RightToeBase
					{
						OFFSET -0.970200 -13.225400 11.864200
						CHANNELS 3 Xrotation Yrotation Zrotation
						End Site
						{
							OFFSET 0.000000 12.319244 0.000000
						}
					}
					JOINT RFootTongue
					{
						OFFSET -1.142200 -1.059800 6.665200
						CHANNELS 3 Xrotation Yrotation Zrotation
						End Site
						{
							OFFSET 0.000000 12.319243 0.000000
						}
					}
				}
				JOINT RightPantLeg
				{
					OFFSET -0.919482 -16.533978 -2.284800
					CHANNELS 3 Xrotation Yrotation Zrotation
					End Site
					{
						OFFSET -0.350400 24.744419 0.000000
					}
				}
			}
		}
	}
	JOINT Spine
	{
		OFFSET 0.000000 7.722000 1.166200
		CHANNELS 3 Xrotation Yrotation Zrotation
		JOINT Spine1
		{
			OFFSET 0.000000 12.024101 0.248800
			CHANNELS 3 Xrotation Yrotation Zrotation
			JOINT Spine2
			{
				OFFSET 0.000000 11.502998 -0.491200
				CHANNELS 3 Xrotation Yrotation Zrotation
				JOINT Neck
				{
					OFFSET 0.000000 18.430702 -3.123100
					CHANNELS 3 Xrotation Yrotation Zrotation
					JOINT Head
					{
						OFFSET 0.000000 9.051102 1.034000
						CHANNELS 3 Xrotation Yrotation Zrotation
						JOINT HairB
						{
							OFFSET 0.208400 24.786102 24.822300
							CHANNELS 3 Xrotation Yrotation Zrotation
							End Site
							{
								OFFSET 0.000000 32.263779 0.000000
							}
						}
						JOINT HairA
						{
							OFFSET -7.081100 24.428299 23.196600
							CHANNELS 3 Xrotation Yrotation Zrotation
							End Site
							{
								OFFSET 0.000000 32.263779 0.000000
							}
						}
						JOINT Hat
						{
							OFFSET 16.728800 15.048294 -15.439601
							CHANNELS 3 Xrotation Yrotation Zrotation
							End Site
							{
								OFFSET 0.000000 32.263779 0.000000
							}
						}
					}
				}
				JOINT LeftShoulder
				{
					OFFSET 6.197800 13.665199 -4.064700
					CHANNELS 3 Xrotation Yrotation Zrotation
					JOINT LeftArm
					{
						OFFSET 7.778100 -0.187103 -1.709300
						CHANNELS 3 Xrotation Yrotation Zrotation
						JOINT LeftForeArm
						{
							OFFSET 22.049376 0.000000 0.000000
							CHANNELS 3 Xrotation Yrotation Zrotation
							JOINT LeftHand
							{
								OFFSET 23.009392 0.000000 0.000000
								CHANNELS 3 Xrotation Yrotation Zrotation
								JOINT LeftHandThumb1
								{
									OFFSET 3.507191 -2.063065 3.133727
									CHANNELS 3 Xrotation Yrotation Zrotation
									JOINT LeftHandThumb2
									{
										OFFSET 3.101337 -1.790558 1.790558
										CHANNELS 3 Xrotation Yrotation Zrotation
										JOINT LeftHandThumb3
										{
											OFFSET 3.058640 -1.765907 1.765906
											CHANNELS 3 Xrotation Yrotation Zrotation
											End Site
											{
												OFFSET -0.415260 3.926476 -0.049563
											}
										}
									}
								}
								JOINT LeftHandIndex1
								{
									OFFSET 11.334419 -0.901459 3.706815
									CHANNELS 3 Xrotation Yrotation Zrotation
									JOINT LeftHandIndex2
									{
										OFFSET 3.283112 0.000000 0.000000
										CHANNELS 3 Xrotation Yrotation Zrotation
										JOINT LeftHandIndex3
										{
											OFFSET 3.323853 0.000000 0.000000
											CHANNELS 3 Xrotation Yrotation Zrotation
											End Site
											{
												OFFSET -1.135597 3.097809 0.402452
											}
										}
									}
								}
								JOINT LeftHandMiddle1
								{
									OFFSET 11.335861 0.000000 0.000000
									CHANNELS 3 Xrotation Yrotation Zrotation
									JOINT LeftHandMiddle2
									{
										OFFSET 3.410492 0.000000 0.000000
										CHANNELS 3 Xrotation Yrotation Zrotation
										JOINT LeftHandMiddle3
										{
											OFFSET 3.312172 0.000000 0.000000
											CHANNELS 3 Xrotation Yrotation Zrotation
											End Site
											{
												OFFSET -1.150200 3.080154 0.400270
											}
										}
									}
								}
								JOINT LeftHandRing1
								{
									OFFSET 11.514786 -0.013176 -3.003090
									CHANNELS 3 Xrotation Yrotation Zrotation
									JOINT LeftHandRing2
									{
										OFFSET 3.053307 0.000000 0.000000
										CHANNELS 3 Xrotation Yrotation Zrotation
										JOINT LeftHandRing3
										{
											OFFSET 3.295807 0.000000 0.000000
											CHANNELS 3 Xrotation Yrotation Zrotation
											End Site
											{
												OFFSET -1.281006 3.013344 0.375733
											}
										}
									}
								}
								JOINT LeftHandPinky1
								{
									OFFSET 10.518692 -0.960396 -5.730441
									CHANNELS 3 Xrotation Yrotation Zrotation
									JOINT LeftHandPinky2
									{
										OFFSET 2.861649 0.000000 0.000000
										CHANNELS 3 Xrotation Yrotation Zrotation
										JOINT LeftHandPinky3
										{
											OFFSET 2.863380 0.000000 0.000000
											CHANNELS 3 Xrotation Yrotation Zrotation
											End Site
											{
												OFFSET -0.843597 2.711159 0.369971
											}
										}
									}
								}
							}
							JOINT LSleeve
							{
								OFFSET 6.676277 -0.344902 -1.011730
								CHANNELS 3 Xrotation Yrotation Zrotation
								End Site
								{
									OFFSET 0.000000 14.885353 0.000000
								}
							}
						}
					}
				}
				JOINT RightShoulder
				{
					OFFSET -6.197800 13.665199 -4.064700
					CHANNELS 3 Xrotation Yrotation Zrotation
					JOINT RightArm
					{
						OFFSET -7.778100 -0.187103 -1.709300
						CHANNELS 3 Xrotation Yrotation Zrotation
						JOINT RightForeArm
						{
							OFFSET -22.049376 0.000000 0.000000
							CHANNELS 3 Xrotation Yrotation Zrotation
							JOINT RightHand
							{
								OFFSET -23.009392 0.000000 0.000000
								CHANNELS 3 Xrotation Yrotation Zrotation
								JOINT RightHandThumb1
								{
									OFFSET -3.507191 -2.063065 3.133727
									CHANNELS 3 Xrotation Yrotation Zrotation
									JOINT RightHandThumb2
									{
										OFFSET -3.101337 -1.790558 1.790558
										CHANNELS 3 Xrotation Yrotation Zrotation
										JOINT RightHandThumb3
										{
											OFFSET -3.058640 -1.765907 1.765906
											CHANNELS 3 Xrotation Yrotation Zrotation
											End Site
											{
												OFFSET 0.415260 3.926476 -0.049563
											}
										}
									}
								}
								JOINT RightHandIndex1
								{
									OFFSET -11.334419 -0.901459 3.706815
									CHANNELS 3 Xrotation Yrotation Zrotation
									JOINT RightHandIndex2
									{
										OFFSET -3.283112 0.000000 0.000000
										CHANNELS 3 Xrotation Yrotation Zrotation
										JOINT RightHandIndex3
										{
											OFFSET -3.323853 0.000000 0.000000
											CHANNELS 3 Xrotation Yrotation Zrotation
											End Site
											{
												OFFSET 1.135597 3.097809 0.402452
											}
										}
									}
								}
								JOINT RightHandMiddle1
								{
									OFFSET -11.335861 0.000000 0.000000
									CHANNELS 3 Xrotation Yrotation Zrotation
									JOINT RightHandMiddle2
									{
										OFFSET -3.410492 0.000000 0.000000
										CHANNELS 3 Xrotation Yrotation Zrotation
										JOINT RightHandMiddle3
										{
											OFFSET -3.312172 0.000000 0.000000
											CHANNELS 3 Xrotation Yrotation Zrotation
											End Site
											{
												OFFSET 1.150200 3.080154 0.400270
											}
										}
									}
								}
								JOINT RightHandRing1
								{
									OFFSET -11.514786 -0.013176 -3.003090
									CHANNELS 3 Xrotation Yrotation Zrotation
									JOINT RightHandRing2
									{
										OFFSET -3.053307 0.000000 0.000000
										CHANNELS 3 Xrotation Yrotation Zrotation
										JOINT RightHandRing3
										{
											OFFSET -3.295807 0.000000 0.000000
											CHANNELS 3 Xrotation Yrotation Zrotation
											End Site
											{
												OFFSET 1.281006 3.013344 0.375733
											}
										}
									}
								}
								JOINT RightHandPinky1
								{
									OFFSET -10.518692 -0.960396 -5.730441
									CHANNELS 3 Xrotation Yrotation Zrotation
									JOINT RightHandPinky2
									{
										OFFSET -2.861649 0.000000 0.000000
										CHANNELS 3 Xrotation Yrotation Zrotation
										JOINT RightHandPinky3
										{
											OFFSET -2.863380 0.000000 0.000000
											CHANNELS 3 Xrotation Yrotation Zrotation
											End Site
											{
												OFFSET 0.843597 2.711159 0.369971
											}
										}
									}
								}
							}
							JOINT RSleeve
							{
								OFFSET -6.676277 -0.344902 -1.011730
								CHANNELS 3 Xrotation Yrotation Zrotation
								End Site
								{
									OFFSET 0.000000 14.885353 0.000000
								}
							}
						}
					}
				}
				JOINT Backpack
				{
					OFFSET 0.000000 -2.471497 36.677502
					CHANNELS 3 Xrotation Yrotation Zrotation
					End Site
					{
						OFFSET 0.000000 20.427315 0.000000
					}
				}
				JOINT Hood
				{
					OFFSET 0.000000 18.754097 -10.431000
					CHANNELS 3 Xrotation Yrotation Zrotation
					JOINT Hood1
					{
						OFFSET 0.000000 -5.011002 -7.685901
						CHANNELS 3 Xrotation Yrotation Zrotation
						End Site
						{
							OFFSET 0.000000 9.175140 0.000000
						}
					}
				}
				JOINT LHoodieString
				{
					OFFSET 5.250500 16.397697 3.089900
					CHANNELS 3 Xrotation Yrotation Zrotation
					JOINT LHoodieString1
					{
						OFFSET 0.257700 -6.364304 3.694600
						CHANNELS 3 Xrotation Yrotation Zrotation
						JOINT LHoodieString2
						{
							OFFSET 0.000000 -9.643799 2.679100
							CHANNELS 3 Xrotation Yrotation Zrotation
							End Site
							{
								OFFSET 0.000000 10.009018 0.000000
							}
						}
					}
				}
				JOINT RHoodieString
				{
					OFFSET -5.250500 16.397697 3.089900
					CHANNELS 3 Xrotation Yrotation Zrotation
					JOINT RHoodieString1
					{
						OFFSET -0.257700 -6.364304 3.694600
						CHANNELS 3 Xrotation Yrotation Zrotation
						JOINT RHoodieString2
						{
							OFFSET 0.000000 -9.643799 2.679100
							CHANNELS 3 Xrotation Yrotation Zrotation
							End Site
							{
								OFFSET 0.000000 10.009018 0.000000
							}
						}
					}
				}
			}
			JOINT LBackpack_Strap
			{
				OFFSET 15.223200 -7.719803 -6.610900
				CHANNELS 3 Xrotation Yrotation Zrotation
				End Site
				{
					OFFSET 0.000000 16.040596 0.000000
				}
			}
			JOINT RBackpack_Strap
			{
				OFFSET -15.223000 -7.719803 -6.610900
				CHANNELS 3 Xrotation Yrotation Zrotation
				End Site
				{
					OFFSET 0.000000 16.040596 0.000000
				}
			}
		}
	}
	JOINT BoyFacialAnim_Joint
	{
		OFFSET 1.000000 -82.208099 -1.550900
		CHANNELS 3 Xrotation Yrotation Zrotation
		End Site
		{
			OFFSET 0.000000 30.012791 0.000000
		}
	}
}
MOTION
Frames: 4
Frame Time: 0.016667
5.126161 65.178009 109.823219 8.413497 -20.108548 1.562126 0.000001 0.000000 0.000000 16.062525 32.510198 11.689277 38.960721 19.470632 -5.856004 -22.901776 -6.051093 -26.395594 0.000001 -0.000001 0.000000 0.000001 -0.000001 0.000000 -0.000000 -0.000002 -0.000002 -70.584295 -6.175398 -9.279106 63.809342 4.653517 -7.613715 -2.497812 7.385770 5.988446 -0.000000 -0.000001 0.000000 -0.000000 -0.000001 0.000000 -0.000000 0.000000 -0.000000 2.360227 -3.947746 1.043094 4.820221 -8.149186 2.085948 4.820150 -8.149127 2.085945 9.532180 2.585901 14.901487 -2.611316 9.939541 -20.211633 -0.000000 -0.000000 -0.000001 -0.000000 -0.000000 -0.000001 -0.000000 -0.000000 -0.000001 -4.481863 -16.524618 -19.193559 -50.218259 -13.065790 -29.545349 -9.513735 -45.265118 18.313320 -90.641309 -9.142722 11.811215 18.604737 9.201155 -20.335720 9.366563 23.517125 3.907242 -0.000003 0.000000 -0.000001 5.062929 7.259564 -60.393489 0.009033 -4.396056 -76.234753 0.000000 -0.000001 -0.000005 -0.063974 4.758047 -60.986821 -0.080416 -4.896946 -84.974370 -0.000000 0.000002 -0.000005 -0.034414 -0.057003 -61.362276 -0.169956 -1.351960 -91.625383 -0.000001 0.000003 -0.000007 -4.255101 -2.157319 -63.603172 -0.059596 -0.064762 -85.011075 -0.000000 -0.000001 -0.000000 0.000001 -0.000000 0.000001 0.026767 -1.767831 1.230269 -18.293038 31.587309 8.179646 40.535189 8.128191 -4.683263 -43.424741 -46.363707 -11.839846 15.959772 -4.187785 29.032218 -14.791936 -41.235498 -16.515537 0.000000 0.000000 -0.000000 5.358230 -4.863592 67.585036 0.006266 4.394822 68.693453 -0.000006 0.000003 0.000000 -0.076806 -4.752204 70.834888 -0.076452 4.897891 82.216360 -0.000001 -0.000001 0.000002 -1.164525 -6.475308 73.357488 -0.172087 1.351246 92.834367 0.000002 -0.000000 0.000000 -5.344940 -12.802394 81.125244 -0.058388 0.065297 84.696005 0.000002 0.000001 -0.000001 -0.000000 -0.000000 -0.000000 0.000001 -0.000000 -0.000001 0.000001 -0.000000 -0.000001 0.000001 -0.000000 -0.000001 0.000001 -0.000000 -0.000001 0.000001 -0.000000 -0.000001 -0.000000 -0.000000 0.000000 0.000001 -0.000000 -0.000001 0.000001 -0.000000 -0.000001 -0.000000 -0.000000 0.000000 -0.000001 -0.000001 -0.000000 -0.000001 -0.000001 -0.000000 0.000001 0.000000 0.000000 
4.571103 65.407990 111.810165 10.272484 -19.155933 1.019947 -0.000000 0.000000 0.000000 16.177219 33.742296 12.692937 35.375216 21.334425 -5.963965 -19.338846 -7.237086 -26.387597 -0.000002 0.000000 -0.000000 -0.000002 0.000000 -0.000000 0.000002 -0.000002 -0.000003 -71.030607 -7.565340 -9.937772 65.540911 5.729882 -7.617726 -5.459170 6.109112 5.982484 0.000000 0.000001 0.000000 0.000000 0.000001 0.000000 -0.000000 0.000000 -0.000000 2.372851 -4.955153 1.351583 4.899764 -10.154808 2.662432 4.899743 -10.154738 2.662414 8.502572 4.160260 15.381255 -1.540128 11.907282 -20.331224 -0.000001 0.000001 0.000000 -0.000001 0.000001 0.000000 -0.000001 0.000001 0.000000 -5.170237 -18.664281 -18.158321 -46.432804 -18.052718 -34.485608 -9.204841 -38.217053 16.317045 -98.519967 2.929844 8.071418 18.604733 9.201159 -20.335722 9.366560 23.517118 3.907240 -0.000002 -0.000000 -0.000001 5.062927 7.259565 -60.393496 0.009032 -4.396062 -76.234747 -0.000003 -0.000002 -0.000000 -0.063973 4.758051 -60.986821 -0.080419 -4.896946 -84.974370 0.000001 -0.000000 0.000002 -0.034414 -0.057001 -61.362269 -0.169958 -1.351960 -91.625383 0.000000 -0.000001 0.000005 -4.255105 -2.157316 -63.603179 -0.059593 -0.064764 -85.011068 -0.000000 0.000000 0.000002 -0.000000 0.000000 -0.000001 0.248728 -2.144181 4.457615 -14.470956 21.706635 4.671644 37.782267 8.308579 -4.381095 -41.885158 -47.673655 -10.025587 15.959772 -4.187789 29.032214 -14.791939 -41.235498 -16.515539 0.000000 -0.000002 0.000001 5.358227 -4.863596 67.585036 0.006267 4.394821 68.693453 -0.000001 0.000000 0.000002 -0.076806 -4.752208 70.834888 -0.076445 4.897893 82.216353 0.000001 -0.000001 -0.000000 -1.164525 -6.475314 73.357488 -0.172087 1.351246 92.834367 -0.000001 -0.000002 0.000000 -5.344940 -12.802394 81.125244 -0.058385 0.065297 84.696012 -0.000001 0.000000 0.000000 0.000006 0.000001 -0.000001 0.000002 0.000001 -0.000000 0.000002 0.000001 -0.000000 0.000002 0.000001 -0.000000 0.000002 0.000001 -0.000000 0.000002 0.000001 0.000000 -0.000002 -0.000001 -0.000000 0.000002 0.000001 -0.000000 0.000002 0.000001 0.000000 -0.000002 -0.000001 -0.000000 0.000001 -0.000001 0.000001 0.000001 -0.000001 0.000001 -0.000000 0.000000 0.000000 
3.971853 65.696251 113.932800 12.003860 -18.086285 0.456224 -0.000000 0.000002 -0.000000 15.933517 34.780450 14.059599 32.090011 23.391699 -6.154780 -14.173968 -8.620383 -26.142129 0.000002 0.000000 0.000000 0.000002 0.000000 0.000000 -0.000001 0.000003 -0.000001 -70.947743 -8.634527 -10.440978 67.121054 7.165368 -7.582900 -8.572885 4.089455 5.951641 -0.000000 -0.000001 -0.000000 -0.000000 -0.000001 -0.000000 -0.000001 0.000001 0.000000 2.382128 -5.849836 1.553841 4.960984 -11.924857 3.021995 4.961000 -11.924943 3.022034 7.327454 5.709586 15.847448 -0.541801 13.761548 -20.423758 -0.000001 -0.000001 0.000000 -0.000001 -0.000001 0.000000 -0.000001 -0.000001 0.000000 -5.400958 -20.399557 -16.650061 -43.348458 -23.388147 -38.897910 -9.093617 -31.903831 14.184716 -106.152416 14.962491 7.623531 18.604737 9.201160 -20.335719 9.366560 23.517122 3.907241 0.000000 -0.000001 0.000000 5.062929 7.259563 -60.393489 0.009033 -4.396058 -76.234747 -0.000004 -0.000002 -0.000002 -0.063975 4.758046 -60.986814 -0.080416 -4.896947 -84.974370 -0.000000 0.000001 0.000000 -0.034415 -0.057005 -61.362276 -0.169956 -1.351959 -91.625389 -0.000000 0.000001 -0.000004 -4.255104 -2.157321 -63.603172 -0.059593 -0.064762 -85.011068 0.000003 0.000000 -0.000002 0.000001 0.000001 0.000002 0.440960 -2.570727 6.867599 -12.839519 16.555900 3.599509 34.933668 8.728775 -3.601192 -39.383690 -54.979942 -8.524780 15.959773 -4.187788 29.032218 -14.791939 -41.235498 -16.515532 -0.000004 0.000000 -0.000002 5.358227 -4.863592 67.585036 0.006265 4.394821 68.693453 -0.000001 0.000000 0.000002 -0.076805 -4.752208 70.834888 -0.076449 4.897892 82.216360 -0.000000 0.000000 -0.000004 -1.164522 -6.475312 73.357488 -0.172083 1.351246 92.834367 -0.000001 -0.000001 0.000002 -5.344940 -12.802393 81.125244 -0.058387 0.065297 84.696005 0.000001 0.000000 -0.000003 -0.000000 -0.000002 -0.000002 0.000001 -0.000003 0.000001 0.000001 -0.000003 0.000001 0.000001 -0.000003 0.000001 0.000001 -0.000003 0.000001 0.000001 -0.000003 0.000002 0.000001 -0.000002 -0.000000 0.000001 -0.000003 0.000001 0.000001 -0.000003 0.000002 0.000001 -0.000002 -0.000000 0.000002 -0.000001 -0.000000 0.000002 -0.000001 -0.000000 -0.000000 0.000002 -0.000000 
3.422849 65.934845 115.804840 13.054259 -18.353654 -0.110884 0.000001 0.000001 0.000000 15.993057 35.598690 15.345273 29.648069 25.241331 -6.382589 -6.999417 -10.324763 -26.437639 -0.000002 -0.000001 0.000003 -0.000002 -0.000001 0.000003 -0.000002 -0.000002 0.000002 -70.164559 -9.153815 -9.723748 67.952452 7.007098 -7.634816 -11.057001 3.772036 6.156256 0.000000 -0.000002 -0.000000 0.000000 -0.000002 -0.000000 0.000000 0.000001 0.000000 2.390473 -6.579487 1.727463 5.005433 -13.331985 3.278266 5.005471 -13.331926 3.278247 6.051134 7.224981 16.300540 0.372245 15.500515 -20.487830 -0.000001 0.000003 -0.000001 -0.000001 0.000003 -0.000001 -0.000001 0.000003 -0.000001 -5.462530 -21.822304 -15.277260 -41.539855 -28.186695 -42.662673 -9.092992 -26.803766 12.045798 -113.642730 25.261567 10.199954 18.604739 9.201160 -20.335719 9.366562 23.517120 3.907245 -0.000001 -0.000000 -0.000001 5.062929 7.259565 -60.393489 0.009033 -4.396055 -76.234753 -0.000002 -0.000001 -0.000005 -0.063973 4.758049 -60.986814 -0.080416 -4.896946 -84.974363 0.000005 0.000002 -0.000001 -0.034413 -0.057002 -61.362283 -0.169957 -1.351960 -91.625383 0.000004 0.000002 -0.000000 -4.255101 -2.157314 -63.603172 -0.059595 -0.064757 -85.011075 -0.000002 -0.000001 0.000003 -0.000001 -0.000001 0.000001 0.571898 -3.041684 8.393499 -12.235276 14.739588 3.552622 31.986903 9.211512 -2.529626 -37.140281 -64.951165 -8.983999 15.959773 -4.187787 29.032218 -14.791936 -41.235505 -16.515536 -0.000004 0.000001 0.000001 5.358228 -4.863595 67.585036 0.006266 4.394819 68.693453 -0.000001 -0.000001 0.000005 -0.076805 -4.752207 70.834888 -0.076449 4.897891 82.216360 -0.000001 0.000001 -0.000005 -1.164524 -6.475312 73.357482 -0.172085 1.351247 92.834360 -0.000000 0.000002 0.000003 -5.344941 -12.802394 81.125244 -0.058386 0.065299 84.696012 0.000001 0.000001 0.000002 -0.000001 -0.000000 0.000002 0.000002 0.000001 -0.000001 0.000002 0.000001 -0.000001 0.000002 0.000001 -0.000001 0.000002 0.000001 -0.000001 0.000002 0.000001 0.000000 -0.000000 0.000002 -0.000002 0.000002 0.000001 -0.000001 0.000002 0.000001 0.000000 -0.000000 0.000002 -0.000002 -0.000001 -0.000000 0.000000 -0.000001 -0.000000 0.000000 0.000001 0.000001 0.000000 
